<?xml version="1.0" encoding="iso-8859-1"?>
<!-- Generator: Adobe Illustrator 17.1.0, SVG Export Plug-In . SVG Version: 6.00 Build 0)  -->
<!DOCTYPE svg PUBLIC "-//W3C//DTD SVG 1.1//EN" "http://www.w3.org/Graphics/SVG/1.1/DTD/svg11.dtd">
<svg version="1.1" id="Capa_1" xmlns="http://www.w3.org/2000/svg" xmlns:xlink="http://www.w3.org/1999/xlink" x="0px" y="0px"
	 viewBox="0 0 325 325" style="enable-background:new 0 0 325 325;" xml:space="preserve">
<g>
	<path d="M161.135,187.112c31.963,0,57.966-26.218,57.966-58.444c0-17.531-9.148-34.79-24.47-46.166
		c-1.402-1.041-3.094-1.614-4.762-1.614c-3.309,0-6.869,2.393-6.869,7.646v5.667c0,5.21,2.685,8.465,3.508,9.339
		c4.202,4.461,11.251,13.658,11.251,25.13c0,20.974-16.048,37.403-36.534,37.403c-20.616,0-38.034-17.128-38.034-37.403
		c0-10.375,2.785-19.151,8.055-25.379l0.113-0.132c0.996-1.162,3.641-4.248,3.641-9.394v-5.037c0-8.256-6.135-8.494-6.835-8.494
		c-2.297,0-4.168,1.176-5.081,1.878c-13.77,10.599-21.353,27.133-21.353,46.557c0,15.554,6.271,30.24,17.659,41.352
		C130.686,181.042,145.511,187.112,161.135,187.112z"/>
	<path d="M155,110.5h9c3.309,0,6-2.691,6-6v-37c0-3.309-2.691-6-6-6h-9c-3.309,0-6,2.691-6,6v37
		C149,107.809,151.691,110.5,155,110.5z"/>
	<path d="M295,2.5H30c-16.542,0-30,13.458-30,30v201c0,16.542,13.458,30,30,30h107v16.729c0,2.857-2.202,5.271-4.808,5.271H65.119
		C56.782,285.5,50,292.107,50,300.229v7.271c0,8.271,6.782,15,15.119,15h196.524c8.324,0,15.357-6.869,15.357-15v-7.271
		c0-8.122-6.89-14.729-15.357-14.729h-67.073c-2.822,0-4.569-2.736-4.569-5.271V263.5h105c16.542,0,30-13.458,30-30v-201
		C325,15.958,311.542,2.5,295,2.5z M295,32.5l0.016,178H30v-178H295z"/>
</g>
<g>
</g>
<g>
</g>
<g>
</g>
<g>
</g>
<g>
</g>
<g>
</g>
<g>
</g>
<g>
</g>
<g>
</g>
<g>
</g>
<g>
</g>
<g>
</g>
<g>
</g>
<g>
</g>
<g>
</g>
</svg>
