<svg width="65" height="65" xmlns="http://www.w3.org/2000/svg">

 <g>
  <title>background</title>
  <rect fill="none" id="canvas_background" height="67" width="67" y="-1" x="-1"/>
 </g>
 <g>
  <title>Layer 1</title>
  <g id="svg_1">
   <path id="svg_2" fill="#58AD1C" d="m54.88731,44.083319l-5.596,8.04l-3.949,-3.241c-0.426,-0.352 -1.057,-0.287 -1.407,0.138c-0.351,0.427 -0.289,1.058 0.139,1.407l4.786,3.929c0.179,0.148 0.404,0.227 0.634,0.227c0.045,0 0.091,-0.003 0.137,-0.01c0.276,-0.038 0.524,-0.19 0.684,-0.419l6.214,-8.929c0.315,-0.453 0.204,-1.076 -0.25,-1.392c-0.454,-0.318 -1.076,-0.204 -1.392,0.25z"/>
   <path id="svg_3" fill="#58AD1C" d="m49.70831,36.583319c-7.168,0 -13,5.832 -13,13s5.832,13 13,13s13,-5.832 13,-13s-5.832,-13 -13,-13zm0,24c-6.065,0 -11,-4.935 -11,-11s4.935,-11 11,-11s11,4.935 11,11s-4.935,11 -11,11z"/>
   <path id="svg_4" fill="#9e9e9e" d="m58.70831,5.415319c0,-1.561 -1.271,-2.832 -2.832,-2.832l-48.335,0c-1.562,0 -2.833,1.271 -2.833,2.832l0,26.168l54,0l0,-26.168zm-18,11.663c0,1.933 -1.572,3.505 -3.504,3.505l-10.991,0c-1.933,0 -3.505,-1.572 -3.505,-3.505l0,-1.495c0,-0.553 0.448,-1 1,-1s1,0.447 1,1l0,1.495c0,0.83 0.675,1.505 1.505,1.505l10.991,0c0.829,0 1.504,-0.675 1.504,-1.505l0,-1.495c0,-0.553 0.448,-1 1,-1s1,0.447 1,1l0,1.495z"/>
   <path id="svg_5" fill="#9e9e9e" d="m33.70831,49.583319l-7.495,0c-1.933,0 -3.505,-1.572 -3.505,-3.505l0,-1.495c0,-0.553 0.448,-1 1,-1s1,0.447 1,1l0,1.495c0,0.83 0.675,1.505 1.505,1.505l7.634,0c0.989,-7.88 7.717,-14 15.861,-14l-45,0l0,26.168c0,1.561 1.271,2.832 2.833,2.832l32.876,0c-4.054,-2.906 -6.709,-7.644 -6.709,-13z"/>
  </g>
  <g id="svg_6"/>
  <g id="svg_7"/>
  <g id="svg_8"/>
  <g id="svg_9"/>
  <g id="svg_10"/>
  <g id="svg_11"/>
  <g id="svg_12"/>
  <g id="svg_13"/>
  <g id="svg_14"/>
  <g id="svg_15"/>
  <g id="svg_16"/>
  <g id="svg_17"/>
  <g id="svg_18"/>
  <g id="svg_19"/>
  <g id="svg_20"/>
 </g>
</svg>