<?xml version="1.0" standalone="no"?>
<!DOCTYPE svg PUBLIC "-//W3C//DTD SVG 20010904//EN"
 "http://www.w3.org/TR/2001/REC-SVG-20010904/DTD/svg10.dtd">
<svg version="1.0" xmlns="http://www.w3.org/2000/svg"
 width="50.000000pt" height="50.000000pt" viewBox="0 0 50.000000 50.000000"
 preserveAspectRatio="xMidYMid meet">
<metadata>
Created by potrace 1.14, written by Peter Selinger 2001-2017
</metadata>
<g transform="translate(0.000000,50.000000) scale(0.100000,-0.100000)"
fill="#000000" stroke="none">
<path d="M107 486 c-149 -40 -130 -127 33 -157 85 -15 191 0 242 35 114 77
-97 170 -275 122z"/>
<path d="M0 327 c0 -67 71 -102 210 -102 139 0 210 35 210 102 0 33 0 33 -24
17 -36 -23 -123 -44 -186 -44 -63 0 -150 21 -186 44 -24 16 -24 16 -24 -17z"/>
<path d="M0 228 c0 -68 70 -103 207 -103 68 0 93 -3 93 -12 0 -10 -23 -13 -83
-13 -90 0 -167 18 -198 46 -18 17 -19 16 -19 -18 0 -23 7 -41 22 -54 45 -39
79 -48 198 -49 67 -1 124 -6 137 -13 29 -16 58 -15 92 2 37 20 70 96 41 96 -5
0 -10 -9 -10 -20 0 -32 -44 -70 -80 -70 -19 0 -40 9 -55 25 -65 64 18 175 91
120 19 -14 18 -14 -3 -15 -13 0 -23 -4 -23 -10 0 -5 18 -10 40 -10 39 0 40 1
40 35 0 19 -4 35 -10 35 -5 0 -10 -7 -10 -15 0 -14 -3 -13 -25 1 -18 11 -25
25 -25 47 0 28 -1 29 -17 14 -71 -62 -310 -62 -385 1 -17 14 -18 12 -18 -20z"/>
</g>
</svg>
