<?xml version="1.0" standalone="no"?>
<!DOCTYPE svg PUBLIC "-//W3C//DTD SVG 20010904//EN"
 "http://www.w3.org/TR/2001/REC-SVG-20010904/DTD/svg10.dtd">
<svg version="1.0" xmlns="http://www.w3.org/2000/svg"
 width="48.000000pt" height="48.000000pt" viewBox="0 0 48.000000 48.000000"
 preserveAspectRatio="xMidYMid meet">
<metadata>
Created by potrace 1.14, written by Peter Selinger 2001-2017
</metadata>
<g transform="translate(0.000000,48.000000) scale(0.100000,-0.100000)"
fill="#000000" stroke="none">
<path d="M158 412 l-67 -47 -1 -126 0 -126 77 -51 77 -51 75 53 76 53 3 121 3
121 -75 50 c-41 28 -81 51 -88 50 -7 0 -43 -21 -80 -47z m162 -12 c33 -22 60
-44 60 -48 -1 -4 -30 -27 -65 -52 l-65 -45 0 -112 c0 -69 -4 -113 -10 -113 -5
0 -37 20 -71 45 l-61 45 0 122 -1 122 64 43 c35 24 70 41 77 38 7 -2 39 -23
72 -45z"/>
</g>
</svg>
