<svg width="530" height="496" xmlns="http://www.w3.org/2000/svg">

 <g>
  <title>background</title>
  <rect fill="none" id="canvas_background" height="498" width="532" y="-1" x="-1"/>
 </g>
 <g>
  <title>Layer 1</title>
  <g id="svg_1">
   <g id="svg_2">
    <g id="svg_3">
     <path id="svg_4" fill="#9e9e9e" d="m450,248l0,-131.312l-116.688,-116.688l-299.312,0l0,496l416,0l0,-96l80,0l0,-152l-80,0zm-112,-220.688l84.688,84.688l-84.688,0l0,-84.688zm96,452.688l-384,0l0,-464l272,0l0,112l112,0l0,120l-16,0l0,16l-5.336,0l-28.352,-21.264l-22.312,-44.624l0,-54.112l-45.416,0l-18.584,46.464l0,25.536l5.752,24l-84.304,0l-9.64,48.192l10.528,42.12l-26.336,22.288l0,-16.6l-128,0l0,128l128,0l0,-90.448l30.664,-25.944l1.584,6.328l18.808,38.064l152.256,0l8,-8l12.688,0l0,16l16,0l0,80zm-120,-264.984l0,-21.48l13.416,-33.536l18.584,0l0,41.888l25.688,51.376l35.648,26.736l10.664,0l0,88l-19.312,0l-8,8l-135.744,0l-13.4,-26.792l-15.352,-61.408l6.36,-31.8l91.696,0l-10.248,-40.984zm-204.28,216.984l15.208,0l53.072,-44.904l0,60.904l-96,0l0,-96l96,0l0,14.136l-58.928,49.864l-0.792,0l-13.624,-20.44l-13.312,8.872l18.376,27.568zm404.28,-48l-80,0l0,-120l80,0l0,120z"/>
     <path id="svg_5" fill="#9e9e9e" d="m192,69.552l37.168,-31.448l-10.328,-12.216l-26.84,22.712l0,-16.6l-128,0l0,128l128,0l0,-90.448zm-16,-7.416l-58.928,49.864l-0.792,0l-13.624,-20.44l-13.312,8.872l18.376,27.568l15.208,0l53.072,-44.904l0,60.904l-96,0l0,-96l96,0l0,14.136z"/>
     <path id="svg_6" fill="#9e9e9e" d="m192,221.552l37.168,-31.448l-10.328,-12.216l-26.84,22.712l0,-16.6l-128,0l0,128l128,0l0,-90.448zm-16,-7.416l-58.928,49.864l-0.792,0l-13.624,-20.44l-13.312,8.872l18.376,27.568l15.208,0l53.072,-44.904l0,60.904l-96,0l0,-96l96,0l0,14.136z"/>
    </g>
   </g>
  </g>
  <g id="svg_7"/>
  <g id="svg_8"/>
  <g id="svg_9"/>
  <g id="svg_10"/>
  <g id="svg_11"/>
  <g id="svg_12"/>
  <g id="svg_13"/>
  <g id="svg_14"/>
  <g id="svg_15"/>
  <g id="svg_16"/>
  <g id="svg_17"/>
  <g id="svg_18"/>
  <g id="svg_19"/>
  <g id="svg_20"/>
  <g id="svg_21"/>
 </g>
</svg>