<svg width="64" height="58" xmlns="http://www.w3.org/2000/svg">

 <g>
  <title>background</title>
  <rect fill="none" id="canvas_background" height="60" width="66" y="-1" x="-1"/>
 </g>
 <g>
  <title>Layer 1</title>
  <g id="svg_1">
   <g id="svg_2">
    <polygon id="svg_3" fill="#556080" points="27.999999977648258,10.203999757766724 22.999999977648258,3.2039997577667236 2.999999262392521,3.2039997577667236 2.999999262392521,10.203999757766724 2.999999262392521,54.20399880409241 60.99999997764826,54.20399880409241 60.99999997764826,17.20400071144104 32.99999997764826,17.20400071144104 "/>
    <polygon id="svg_4" fill="#3D4451" points="32.99999997764826,17.20400071144104 60.99999997764826,17.20400071144104 60.99999997764826,10.203999757766724 27.999999977648258,10.203999757766724 "/>
   </g>
   <g id="svg_5">
    <circle id="svg_6" fill="#D0E8F9" r="9.796" cy="40" cx="48.166999"/>
    <path id="svg_7" fill="#EAF6FD" d="m51.719999,30.879l-12.674,12.673c0.706,1.81 1.93,3.357 3.495,4.459l13.638,-13.638c-1.102,-1.565 -2.649,-2.789 -4.459,-3.494z"/>
    <path id="svg_8" fill="#B1D3EF" d="m62.111999,53.495l-5.97,-6.244c1.746,-1.919 2.82,-4.458 2.82,-7.251c0,-5.953 -4.843,-10.796 -10.796,-10.796s-10.795,4.843 -10.795,10.796s4.843,10.796 10.796,10.796c2.442,0 4.689,-0.824 6.499,-2.196l6.001,6.276c0.196,0.206 0.459,0.309 0.723,0.309c0.249,0 0.497,-0.092 0.691,-0.277c0.399,-0.381 0.413,-1.014 0.031,-1.413zm-22.741,-13.495c0,-4.85 3.946,-8.796 8.796,-8.796s8.796,3.946 8.796,8.796s-3.946,8.796 -8.796,8.796s-8.796,-3.946 -8.796,-8.796z"/>
   </g>
  </g>
  <g id="svg_9"/>
  <g id="svg_10"/>
  <g id="svg_11"/>
  <g id="svg_12"/>
  <g id="svg_13"/>
  <g id="svg_14"/>
  <g id="svg_15"/>
  <g id="svg_16"/>
  <g id="svg_17"/>
  <g id="svg_18"/>
  <g id="svg_19"/>
  <g id="svg_20"/>
  <g id="svg_21"/>
  <g id="svg_22"/>
  <g id="svg_23"/>
 </g>
</svg>