<svg width="63" height="58" xmlns="http://www.w3.org/2000/svg">

 <g>
  <title>background</title>
  <rect fill="none" id="canvas_background" height="60" width="65" y="-1" x="-1"/>
 </g>
 <g>
  <title>Layer 1</title>
  <g id="svg_1">
   <g id="svg_2">
    <polygon id="svg_3" fill="#556080" points="27.62495982646942,10.694992005825043 22.62495982646942,3.694992244243622 2.6249595880508423,3.694992244243622 2.6249595880508423,10.694992005825043 2.6249595880508423,54.69499200582504 60.624948382377625,54.69499200582504 60.624948382377625,17.694992005825043 32.62495982646942,17.694992005825043 "/>
    <polygon id="svg_4" fill="#3D4451" points="32.62495982646942,17.694992005825043 60.624948382377625,17.694992005825043 60.624948382377625,10.694992005825043 27.62495982646942,10.694992005825043 "/>
   </g>
   <g id="svg_5">
    <circle id="svg_6" fill="#76C9B0" r="11" cy="45.195" cx="50.139973"/>
    <path id="svg_7" fill="#FFFFFF" d="m56.139973,44.195l-5,0l0,-5c0,-0.552 -0.447,-1 -1,-1s-1,0.448 -1,1l0,6c0,0.552 0.447,1 1,1l6,0c0.553,0 1,-0.448 1,-1s-0.448,-1 -1,-1z"/>
   </g>
  </g>
  <g id="svg_8"/>
  <g id="svg_9"/>
  <g id="svg_10"/>
  <g id="svg_11"/>
  <g id="svg_12"/>
  <g id="svg_13"/>
  <g id="svg_14"/>
  <g id="svg_15"/>
  <g id="svg_16"/>
  <g id="svg_17"/>
  <g id="svg_18"/>
  <g id="svg_19"/>
  <g id="svg_20"/>
  <g id="svg_21"/>
  <g id="svg_22"/>
 </g>
</svg>