<svg width="20" height="18" xmlns="http://www.w3.org/2000/svg">

 <g>
  <title>background</title>
  <rect fill="none" id="canvas_background" height="20" width="22" y="-1" x="-1"/>
 </g>
 <g>
  <title>Layer 1</title>
  <path id="svg_1" d="m12.299996,9.199998l-0.9,0.9l0.9,0.9l-1.2,1.2l4.3,4.3c0.6,0.6 1.5,0.6 2.1,0s0.6,-1.5 0,-2.1l-5.2,-5.2zm3.9,6.8c-0.4,0 -0.8,-0.3 -0.8,-0.8c0,-0.4 0.3,-0.8 0.8,-0.8s0.8,0.3 0.8,0.8c0,0.5 -0.3,0.8 -0.8,0.8z" fill="#9e9e9e"/>
  <path id="svg_2" d="m5.599996,8.999998l0.9,-0.6l1.5,-1.7l0.9,0.9l0.9,-0.9l-0.1,-0.1c0.2,-0.5 0.3,-1 0.3,-1.6c0,-2.2 -1.8,-4 -4,-4c-0.6,0 -1.1,0.1 -1.6,0.3l2.9,2.9l-2.1,2.1l-2.9,-2.9c-0.2,0.5 -0.3,1 -0.3,1.6c0,2.1 1.6,3.7 3.6,4z" fill="#9e9e9e"/>
  <path id="svg_3" d="m9.999996,11.799998l0.9,-0.8l-0.9,-0.9l5.7,-5.7l1.2,-0.4l1.1,-2.2l-0.7,-0.7l-2.3,1l-0.5,1.2l-5.6,5.7l-0.9,-0.9l-0.8,0.9c0,0 0.8,0.6 -0.1,1.5c-0.5,0.5 -1.3,-0.1 -2.8,1.4c-0.5,0.5 -2.1,2.1 -2.1,2.1s-0.6,1 0.6,2.2s2.2,0.6 2.2,0.6s1.6,-1.6 2.1,-2.1c1.4,-1.4 0.9,-2.3 1.3,-2.7c0.9,-0.9 1.6,-0.2 1.6,-0.2zm-3.1,-0.4l0.7,0.7l-3.8,3.8l-0.7,-0.7l3.8,-3.8z" fill="#9e9e9e"/>
 </g>
</svg>