<svg width="450" height="412" xmlns="http://www.w3.org/2000/svg">

 <g>
  <title>background</title>
  <rect fill="none" id="canvas_background" height="414" width="452" y="-1" x="-1"/>
 </g>
 <g>
  <title>Layer 1</title>
  <g stroke="null" id="svg_1">
   <g stroke="null" id="svg_2">
    <g stroke="null" id="svg_3">
     <path stroke="null" id="svg_4" fill="#9e9e9e" d="m413.802275,22.338l-376.60857,0c-11.153993,0 -20.193706,9.356066 -20.193706,20.89807l0,244.507423c0,11.542004 9.039712,20.89807 20.193706,20.89807l140.849077,0l0,47.355027l-54.808746,0c-10.2998,0 -18.679178,8.671654 -18.679178,19.330715s8.379378,19.330715 18.679178,19.330715l204.527908,0c10.2998,0 18.679178,-8.671654 18.679178,-19.330715s-8.379378,-19.330715 -18.679178,-19.330715l-54.808746,0l0,-47.355027l140.849077,0c11.153993,0 20.193706,-9.356066 20.193706,-20.89807l0,-244.507423c0,-11.542004 -9.039712,-20.89807 -20.193706,-20.89807zm-10.096853,254.956458l-356.414864,0l0,-223.609353l356.414864,0l0,223.609353z"/>
     <path stroke="null" id="svg_5" fill="#9e9e9e" d="m112.50714,177.296147l63.694986,30.65329c1.646797,0.788902 3.39961,1.1891 5.211995,1.1891c2.360644,0 4.660707,-0.693816 6.660894,-2.010394c3.582363,-2.368796 5.720877,-6.405259 5.720877,-10.799078l0,-0.336459c0,-4.964337 -2.811973,-9.524296 -7.164727,-11.618282l-39.837133,-19.153081l39.838142,-19.157261c4.351744,-2.093987 7.163717,-6.65499 7.163717,-11.617237l0,-0.333324c0,-4.400089 -2.139523,-8.436551 -5.719867,-10.798033c-1.981003,-1.310309 -4.288133,-2.002035 -6.669981,-2.002035c-1.79522,0 -3.597509,0.408557 -5.209976,1.183876l-63.689938,30.64911c-4.349724,2.095032 -7.159678,6.65499 -7.159678,11.616192l0,0.917425c-0.00101,4.954932 2.807935,9.513847 7.160688,11.616192z"/>
     <path stroke="null" id="svg_6" fill="#9e9e9e" d="m194.363335,239.731222c2.323286,3.290401 6.060131,5.25482 9.996894,5.25482l0.318051,0c5.403836,0 10.13926,-3.579839 11.785047,-8.898398l41.959491,-134.541777c1.203545,-3.883906 0.535133,-8.169056 -1.788153,-11.466771c-2.323286,-3.290401 -6.060131,-5.255865 -9.996894,-5.255865l-0.317041,0c-5.405855,0 -10.145318,3.579839 -11.792114,8.898398l-41.96454,134.553271c-1.193448,3.887041 -0.520998,8.168011 1.799259,11.456322z"/>
     <path stroke="null" id="svg_7" fill="#9e9e9e" d="m257.200089,134.445698c0,4.959112 2.808944,9.519071 7.163717,11.621417l39.837133,19.153081l-39.837133,19.153081c-4.352753,2.093987 -7.164727,6.653946 -7.164727,11.618282l0,0.336459c0,4.393819 2.137504,8.430282 5.723906,10.800123c1.993119,1.314489 4.295201,2.009349 6.658874,2.009349c1.809356,0 3.56116,-0.400198 5.219063,-1.19328l63.691957,-30.652245c4.348714,-2.099211 7.157659,-6.658125 7.157659,-11.614103l0,-0.917425c0,-4.961202 -2.809954,-9.521161 -7.161698,-11.616192l-63.690947,-30.6512c-1.606409,-0.772184 -3.405668,-1.181786 -5.201899,-1.181786c-2.380838,0 -4.688978,0.691726 -6.667962,1.997856c-3.588421,2.365662 -5.727945,6.402124 -5.727945,10.802213l0,0.334369l0,0z"/>
    </g>
   </g>
  </g>
  <g id="svg_8"/>
  <g id="svg_9"/>
  <g id="svg_10"/>
  <g id="svg_11"/>
  <g id="svg_12"/>
  <g id="svg_13"/>
  <g id="svg_14"/>
  <g id="svg_15"/>
  <g id="svg_16"/>
  <g id="svg_17"/>
  <g id="svg_18"/>
  <g id="svg_19"/>
  <g id="svg_20"/>
  <g id="svg_21"/>
  <g id="svg_22"/>
 </g>
</svg>