<svg version="1.1" id="Layer_1" xmlns="http://www.w3.org/2000/svg" xmlns:xlink="http://www.w3.org/1999/xlink" x="0px" y="0px"
	 width="24" height="24" viewBox="0 0 24 24" enable-background="new 0 0 24 24" xml:space="preserve">
<g>
	<path fill="#9e9e9e" d="M13.424,1.924C12.458,0.861,11.074,0.19,9.528,0.19c-1.544,0-2.93,0.671-3.895,1.734C4.775,2.869,4.247,4.123,4.247,5.503
		c0.001,2.521,0.536,3.843,1.412,4.54c0.16,0.126,0.329,0.233,0.51,0.321c-0.07-0.057-0.139-0.117-0.203-0.18
		C5.437,9.664,5.105,8.947,5.1,8.157C5.067,7.341,5.051,6.794,5.033,6.161C5.025,5.827,5.013,5.47,5,5.033
		c0-1.649,1.715-2.882,3.251-2.882h2.554c1.862,0,3.251,1.522,3.251,2.89c-0.013,0.428-0.022,0.784-0.033,1.119
		c-0.018,0.633-0.034,1.181-0.066,1.99c-0.006,0.794-0.339,1.514-0.87,2.035c-0.069,0.069-0.143,0.133-0.219,0.194
		c0.199-0.095,0.387-0.212,0.559-0.352c0.858-0.702,1.382-2.024,1.382-4.523C14.811,4.123,14.283,2.869,13.424,1.924L13.424,1.924z"
		/>
	<path fill="#9e9e9e" d="M10.741,2.61H8.316c-1.381,0-2.852,1.12-2.852,2.501C5.501,6.287,5.51,6.884,5.559,8.068
		c0.007,0.898,0.489,1.679,1.203,2.117c0.384,0.237,0.836,0.375,1.32,0.375h2.895c0.484,0,0.937-0.138,1.321-0.375
		c0.713-0.438,1.195-1.217,1.202-2.117c0.048-1.184,0.058-1.781,0.095-2.957C13.594,3.73,12.123,2.61,10.741,2.61z M8.082,7.002
		C7.924,7.124,7.73,7.196,7.516,7.196c-0.52,0-0.942-0.422-0.942-0.941c0-0.521,0.422-0.941,0.942-0.941
		c0.181,0,0.351,0.054,0.495,0.142c0.267,0.167,0.447,0.461,0.447,0.799C8.458,6.56,8.31,6.831,8.082,7.002z M11.542,7.196
		c-0.214,0-0.409-0.072-0.566-0.194C10.748,6.831,10.6,6.56,10.6,6.254c0-0.338,0.179-0.632,0.447-0.799
		c0.144-0.088,0.313-0.142,0.495-0.142c0.521,0,0.941,0.42,0.941,0.941C12.483,6.774,12.063,7.196,11.542,7.196z"/>
	<path fill="#9e9e9e" d="M12.641,6.237"/>
	<path fill="#9e9e9e" d="M14.319,22.468c0,0.738-0.614,1.342-1.364,1.342H6.103c-0.75,0-1.364-0.604-1.364-1.342v-9.56
		c0-0.738,0.614-1.342,1.364-1.342h6.852c0.75,0,1.364,0.604,1.364,1.342V22.468z"/>
	<g>
		<path fill="#9e9e9e" d="M3.292,19.293V13.19c0-0.475-0.491-0.859-1.097-0.859c-0.606,0-1.097,0.384-1.097,0.859v6.103H3.292z"/>
		<path fill="#9e9e9e" d="M3.419,19.954c0.533-0.004,0.965,0.306,0.965,0.68c0,0.024-0.005,0.048-0.005,0.071s0.011,0.047,0.005,0.071l0.006,0.836
			c0,0.301-0.35,0.548-0.782,0.548c-0.427,0-0.776-0.247-0.776-0.548v-0.293l-1.27,0.004v0.289c0,0.306-0.354,0.551-0.78,0.551
			C0.349,22.164,0,21.918,0,21.613v-0.833c0-0.042,0.01-0.085,0.022-0.128c0-0.004,0-0.008,0-0.012c0-0.379,0.433-0.685,0.97-0.685
			H3.419z"/>
	</g>
	<g>
		<path fill="#9e9e9e" d="M19.907,7.823l-4.315,4.315c-0.335,0.335-0.26,0.954,0.168,1.383c0.429,0.428,1.047,0.503,1.382,0.168l4.315-4.315
			L19.907,7.823z"/>
		<path fill="#9e9e9e" d="M20.285,7.266c-0.38-0.374-0.466-0.898-0.201-1.164c0.018-0.017,0.038-0.031,0.054-0.047s0.026-0.041,0.046-0.053
			l0.588-0.596c0.213-0.213,0.634-0.14,0.94,0.166c0.301,0.302,0.374,0.723,0.161,0.936l-0.208,0.208l0.901,0.896l0.205-0.205
			c0.216-0.216,0.64-0.14,0.942,0.162c0.306,0.306,0.379,0.727,0.163,0.943l-0.589,0.589c-0.03,0.03-0.068,0.052-0.107,0.075
			c-0.003,0.002-0.005,0.005-0.008,0.008c-0.269,0.268-0.791,0.178-1.171-0.202L20.285,7.266z"/>
	</g>
</g>
</svg>
