<svg width="485" height="490" xmlns="http://www.w3.org/2000/svg">
 <g>
  <title>background</title>
  <rect x="-1" y="-1" width="487" height="492" id="canvas_background" fill="none"/>
 </g>

 <g>
  <title>Layer 1</title>
  <g stroke="null" id="svg_1">
   <g stroke="null" id="svg_2">
    <g stroke="null" id="svg_3">
     <path stroke="null" d="m334.631,434.653236l0.002,0c0,1.506978 -1.262,2.733158 -2.814,2.733158l-268.708,0c-1.552,0 -2.814,-1.22618 -2.814,-2.733158l0,-382.28751c0,-1.507949 1.262,-2.73413 2.814,-2.73413l268.708,0c1.552,0 2.814,1.22618 2.814,2.73413l0,26.63299l29.442,-27.605578c-0.532,-16.845893 -14.792,-30.393147 -32.256,-30.393147l-268.708,0c-17.8,0 -32.282,14.069984 -32.282,31.365735l0,382.28751c0,17.293808 14.481,31.364764 32.281,31.364764l268.708,0c17.8,0 32.281,-14.069984 32.281,-31.364764l0,-134.571849l-29.468,28.630634l0,105.941216z" fill="#9e9e9e" id="svg_4"/>
     <path stroke="null" d="m82.319,356.702359c0,7.906046 6.597,14.315803 14.734,14.315803l51.527,0c-5.48,-8.473471 -7.756,-18.560797 -6.32,-28.630634l-45.207,0l0,-0.000972c-8.137,0 -14.734,6.409756 -14.734,14.315803z" fill="#9e9e9e" id="svg_5"/>
     <path stroke="null" d="m158.134,270.538405l-61.081,0c-8.137,0 -14.734,6.409756 -14.734,14.315803s6.597,14.315803 14.734,14.315803l54.697,0l6.384,-28.631606z" fill="#9e9e9e" id="svg_6"/>
     <path stroke="null" d="m211.444,198.691225l-114.391,0c-8.137,0 -14.734,6.409756 -14.734,14.315803c0,7.906046 6.597,14.315803 14.734,14.315803l84.923,0l29.468,-28.631606z" fill="#9e9e9e" id="svg_7"/>
     <path stroke="null" d="m285.39,126.844045l-188.337,0c-8.137,0 -14.734,6.409756 -14.734,14.315803c0,7.906046 6.597,14.315803 14.734,14.315803l158.869,0l29.468,-28.631606z" fill="#9e9e9e" id="svg_8"/>
     <path stroke="null" d="m463.809,79.592374c-24.123,-24.131076 -63.396,-24.016425 -87.457,-0.638352c-13.58,13.194557 -174.931,169.965908 -182.482,177.303559c-1.947,1.890766 -3.375,4.372276 -3.982,7.091831l-18.249,81.85289c-1.045,4.686108 0.389,9.661758 3.982,13.153749c3.569,3.468672 8.682,4.891119 13.538,3.868978l84.244,-17.731036c2.772,-0.583942 5.386,-2.00736 7.299,-3.868978l182.482,-177.303559c23.921,-23.240104 23.881,-60.476348 0.625,-83.729083zm-258.526,249.942607l7.686,-34.474909l27.796,27.007062l-35.482,7.467847zm237.064,-186.459104l-172.064,167.180283l-45.158,-43.877246l172.063,-167.180283c12.872,-12.507624 33.93,-12.091772 46.257,1.121246c11.313,12.111204 11.061,30.94211 -1.098,42.756z" fill="#9e9e9e" id="svg_9"/>
    </g>
   </g>
  </g>
  <g id="svg_10"/>
  <g id="svg_11"/>
  <g id="svg_12"/>
  <g id="svg_13"/>
  <g id="svg_14"/>
  <g id="svg_15"/>
  <g id="svg_16"/>
  <g id="svg_17"/>
  <g id="svg_18"/>
  <g id="svg_19"/>
  <g id="svg_20"/>
  <g id="svg_21"/>
  <g id="svg_22"/>
  <g id="svg_23"/>
  <g id="svg_24"/>
 </g>
</svg>